<svg width="551" height="112" viewBox="0 0 551 112" fill="none" xmlns="http://www.w3.org/2000/svg">
<path d="M20.212 83.32C17.7373 83.32 14.9427 83.1067 11.828 82.68C10.1213 82.4667 8.948 82.0187 8.308 81.336C7.668 80.6533 7.39067 79.544 7.476 78.008C7.77467 73.784 8.47867 68.5787 9.588 62.392C10.6973 56.1627 12.0413 50.168 13.62 44.408C13.9187 43.3413 14.516 42.5947 15.412 42.168C16.308 41.7413 17.4813 41.528 18.932 41.528C21.5347 41.528 22.836 42.2533 22.836 43.704C22.836 44.3013 22.708 44.984 22.452 45.752C21.3427 49.1653 20.2333 53.752 19.124 59.512C18.0147 65.2293 17.2253 70.6907 16.756 75.896C18.036 76.024 19.4867 76.088 21.108 76.088C28.5747 76.088 34.1427 73.8267 37.812 69.304C41.524 64.7813 43.38 58.744 43.38 51.192C43.38 46.1147 41.9293 42.1893 39.028 39.416C36.1267 36.6427 32.0307 35.256 26.74 35.256C23.3267 35.256 19.9347 35.7893 16.564 36.856C13.236 37.9227 10.228 39.3307 7.54 41.08C6.98533 41.464 6.388 41.656 5.748 41.656C5.02267 41.656 4.44667 41.3573 4.02 40.76C3.59333 40.12 3.38 39.352 3.38 38.456C3.38 37.432 3.55067 36.6 3.892 35.96C4.23333 35.2773 4.80933 34.6587 5.62 34.104C8.564 32.0987 12.02 30.584 15.988 29.56C19.956 28.4933 23.7747 27.96 27.444 27.96C32.6493 27.96 37.1507 28.8773 40.948 30.712C44.7453 32.504 47.668 35.1493 49.716 38.648C51.764 42.1467 52.788 46.3707 52.788 51.32C52.788 57.7627 51.508 63.3947 48.948 68.216C46.388 72.9947 42.6547 76.7067 37.748 79.352C32.8413 81.9973 26.996 83.32 20.212 83.32ZM85.616 68.728C86.1707 68.728 86.5973 68.984 86.896 69.496C87.2373 70.008 87.408 70.712 87.408 71.608C87.408 73.3147 87.0027 74.6373 86.192 75.576C84.6133 77.496 82.3733 79.2667 79.472 80.888C76.6133 82.5093 73.5413 83.32 70.256 83.32C65.776 83.32 62.2987 82.104 59.824 79.672C57.3493 77.24 56.112 73.912 56.112 69.688C56.112 66.744 56.7307 64.0133 57.968 61.496C59.2053 58.936 60.912 56.9093 63.088 55.416C65.3067 53.9227 67.8027 53.176 70.576 53.176C73.0507 53.176 75.0347 53.9227 76.528 55.416C78.0213 56.8667 78.768 58.8507 78.768 61.368C78.768 64.312 77.7013 66.8507 75.568 68.984C73.4773 71.0747 69.9147 72.7387 64.88 73.976C65.9467 75.9387 67.9733 76.92 70.96 76.92C72.88 76.92 75.056 76.2587 77.488 74.936C79.9627 73.5707 82.096 71.8 83.888 69.624C84.4 69.0267 84.976 68.728 85.616 68.728ZM69.488 59.448C67.9093 59.448 66.5653 60.3653 65.456 62.2C64.3893 64.0347 63.856 66.2533 63.856 68.856V68.984C66.3733 68.3867 68.3573 67.4907 69.808 66.296C71.2587 65.1013 71.984 63.7147 71.984 62.136C71.984 61.3253 71.7493 60.6853 71.28 60.216C70.8533 59.704 70.256 59.448 69.488 59.448ZM116.245 63.352C116.8 63.352 117.226 63.6293 117.525 64.184C117.824 64.7387 117.973 65.4427 117.973 66.296C117.973 67.3627 117.824 68.1947 117.525 68.792C117.226 69.3467 116.757 69.7307 116.117 69.944C113.557 70.84 110.741 71.352 107.669 71.48C106.816 75.0213 105.194 77.88 102.805 80.056C100.458 82.232 97.8557 83.32 94.997 83.32C90.6877 83.32 87.5517 81.6773 85.589 78.392C83.6263 75.1067 82.645 70.3493 82.645 64.12C82.645 58.616 83.3277 52.6427 84.693 46.2C86.0583 39.7147 88.0423 34.2107 90.645 29.688C93.2903 25.1227 96.4263 22.84 100.053 22.84C102.016 22.84 103.594 23.6933 104.789 25.4C105.984 27.064 106.581 29.24 106.581 31.928C106.581 35.4267 105.92 38.904 104.597 42.36C103.274 45.816 101.077 49.4427 98.005 53.24C100.864 53.4533 103.189 54.648 104.981 56.824C106.773 58.9573 107.84 61.6027 108.181 64.76C110.186 64.632 112.576 64.2053 115.349 63.48C115.605 63.3947 115.904 63.352 116.245 63.352ZM98.581 29.176C97.7277 29.176 96.789 30.456 95.765 33.016C94.7837 35.5333 93.8663 38.968 93.013 43.32C92.1597 47.672 91.5197 52.4293 91.093 57.592C93.909 52.4293 96.149 47.8853 97.813 43.96C99.5197 39.992 100.373 36.472 100.373 33.4C100.373 32.0347 100.202 30.9893 99.861 30.264C99.5623 29.5387 99.1357 29.176 98.581 29.176ZM95.253 76.536C96.5757 76.536 97.749 75.9813 98.773 74.872C99.797 73.7627 100.48 72.1627 100.821 70.072C99.4983 69.176 98.4743 68.0027 97.749 66.552C97.0663 65.1013 96.725 63.5653 96.725 61.944C96.725 61.3467 96.8103 60.536 96.981 59.512H96.789C95.0397 59.512 93.5677 60.3867 92.373 62.136C91.221 63.8427 90.645 66.1467 90.645 69.048C90.645 71.48 91.093 73.336 91.989 74.616C92.9277 75.896 94.0157 76.536 95.253 76.536ZM125.119 83.32C120.852 83.32 117.738 81.6773 115.775 78.392C113.855 75.1067 112.895 70.3493 112.895 64.12C112.895 58.616 113.578 52.6427 114.943 46.2C116.308 39.7147 118.292 34.2107 120.895 29.688C123.54 25.1227 126.676 22.84 130.303 22.84C132.266 22.84 133.844 23.6933 135.039 25.4C136.234 27.064 136.831 29.24 136.831 31.928C136.831 35.4267 136.17 38.904 134.847 42.36C133.524 45.816 131.327 49.4427 128.255 53.24C130.346 53.4107 132.159 54.1147 133.695 55.352C135.274 56.5893 136.468 58.1893 137.279 60.152C138.132 62.1147 138.559 64.248 138.559 66.552C138.559 69.752 137.919 72.632 136.639 75.192C135.402 77.752 133.759 79.7573 131.711 81.208C129.663 82.616 127.466 83.32 125.119 83.32ZM121.343 57.592C124.159 52.4293 126.399 47.8853 128.063 43.96C129.77 39.992 130.623 36.472 130.623 33.4C130.623 32.0347 130.452 30.9893 130.111 30.264C129.812 29.5387 129.386 29.176 128.831 29.176C127.978 29.176 127.039 30.456 126.015 33.016C125.034 35.5333 124.116 38.968 123.263 43.32C122.41 47.672 121.77 52.4293 121.343 57.592ZM125.375 76.408C126.826 76.408 128.042 75.6187 129.023 74.04C130.047 72.4613 130.559 70.1573 130.559 67.128C130.559 64.7813 130.132 63.0107 129.279 61.816C128.426 60.6213 127.402 60.024 126.207 60.024C124.714 60.024 123.455 60.792 122.431 62.328C121.407 63.864 120.895 66.104 120.895 69.048C120.895 71.608 121.322 73.4853 122.175 74.68C123.028 75.832 124.095 76.408 125.375 76.408Z" fill="black"/>
<path d="M240.212 83.32C237.737 83.32 234.943 83.1067 231.828 82.68C230.121 82.4667 228.948 82.0187 228.308 81.336C227.668 80.6533 227.391 79.544 227.476 78.008C227.775 73.784 228.479 68.5787 229.588 62.392C230.697 56.1627 232.041 50.168 233.62 44.408C233.919 43.3413 234.516 42.5947 235.412 42.168C236.308 41.7413 237.481 41.528 238.932 41.528C241.535 41.528 242.836 42.2533 242.836 43.704C242.836 44.3013 242.708 44.984 242.452 45.752C241.343 49.1653 240.233 53.752 239.124 59.512C238.015 65.2293 237.225 70.6907 236.756 75.896C238.036 76.024 239.487 76.088 241.108 76.088C248.575 76.088 254.143 73.8267 257.812 69.304C261.524 64.7813 263.38 58.744 263.38 51.192C263.38 46.1147 261.929 42.1893 259.028 39.416C256.127 36.6427 252.031 35.256 246.74 35.256C243.327 35.256 239.935 35.7893 236.564 36.856C233.236 37.9227 230.228 39.3307 227.54 41.08C226.985 41.464 226.388 41.656 225.748 41.656C225.023 41.656 224.447 41.3573 224.02 40.76C223.593 40.12 223.38 39.352 223.38 38.456C223.38 37.432 223.551 36.6 223.892 35.96C224.233 35.2773 224.809 34.6587 225.62 34.104C228.564 32.0987 232.02 30.584 235.988 29.56C239.956 28.4933 243.775 27.96 247.444 27.96C252.649 27.96 257.151 28.8773 260.948 30.712C264.745 32.504 267.668 35.1493 269.716 38.648C271.764 42.1467 272.788 46.3707 272.788 51.32C272.788 57.7627 271.508 63.3947 268.948 68.216C266.388 72.9947 262.655 76.7067 257.748 79.352C252.841 81.9973 246.996 83.32 240.212 83.32ZM309.712 63.352C310.267 63.352 310.693 63.6293 310.992 64.184C311.291 64.7387 311.44 65.4427 311.44 66.296C311.44 68.344 310.821 69.56 309.584 69.944C307.024 70.84 304.208 71.352 301.136 71.48C300.325 75.064 298.725 77.944 296.336 80.12C293.947 82.2533 291.237 83.32 288.208 83.32C285.648 83.32 283.451 82.7013 281.616 81.464C279.824 80.2267 278.459 78.584 277.52 76.536C276.581 74.488 276.112 72.2693 276.112 69.88C276.112 66.6373 276.731 63.7573 277.968 61.24C279.205 58.68 280.912 56.696 283.088 55.288C285.264 53.8373 287.675 53.112 290.32 53.112C293.563 53.112 296.165 54.2427 298.128 56.504C300.133 58.7227 301.307 61.4747 301.648 64.76C303.653 64.632 306.043 64.2053 308.816 63.48C309.157 63.3947 309.456 63.352 309.712 63.352ZM288.72 76.536C290.085 76.536 291.259 75.9813 292.24 74.872C293.264 73.7627 293.947 72.1627 294.288 70.072C292.965 69.176 291.941 68.0027 291.216 66.552C290.533 65.1013 290.192 63.5653 290.192 61.944C290.192 61.2613 290.256 60.5787 290.384 59.896H290.064C288.357 59.896 286.928 60.728 285.776 62.392C284.667 64.0133 284.112 66.3173 284.112 69.304C284.112 71.6507 284.56 73.4427 285.456 74.68C286.395 75.9173 287.483 76.536 288.72 76.536ZM354.316 63.544C354.444 63.5013 354.657 63.48 354.956 63.48C355.596 63.48 356.087 63.6933 356.428 64.12C356.769 64.5467 356.94 65.1227 356.94 65.848C356.94 67.1707 356.684 68.216 356.172 68.984C355.66 69.7093 354.892 70.2427 353.868 70.584C351.905 71.224 349.815 71.544 347.596 71.544C345.719 71.544 343.948 71.288 342.284 70.776C341.047 72.7813 339.681 74.8507 338.188 76.984C336.481 79.416 335.009 81.08 333.772 81.976C332.577 82.872 331.212 83.32 329.676 83.32C327.969 83.32 326.668 82.6587 325.772 81.336C324.919 80.0133 324.385 77.8373 324.172 74.808L323.852 70.136C322.529 73.72 321.335 76.4507 320.268 78.328C319.244 80.2053 318.199 81.5067 317.132 82.232C316.108 82.9573 314.892 83.32 313.484 83.32C311.735 83.32 310.348 82.6373 309.324 81.272C308.343 79.9067 307.724 77.752 307.468 74.808C306.956 68.8347 306.7 63.608 306.7 59.128V56.888C306.743 55.48 307.127 54.4987 307.852 53.944C308.577 53.3893 309.665 53.112 311.116 53.112C312.225 53.112 313.036 53.368 313.548 53.88C314.103 54.3493 314.38 55.16 314.38 56.312C314.38 61.2187 314.679 67.5973 315.276 75.448C318.177 69.3467 320.844 62.9893 323.276 56.376C323.745 55.096 324.3 54.2427 324.94 53.816C325.623 53.3467 326.433 53.112 327.372 53.112C328.524 53.112 329.313 53.3467 329.74 53.816C330.209 54.2853 330.444 55.1173 330.444 56.312C330.444 61.2187 330.743 67.5973 331.34 75.448C333.9 71.6507 335.82 68.6213 337.1 66.36C336.46 65.1227 336.14 63.6507 336.14 61.944C336.14 60.4933 336.46 59.0853 337.1 57.72C337.74 56.3547 338.615 55.2453 339.724 54.392C340.833 53.5387 342.092 53.112 343.5 53.112C344.737 53.112 345.74 53.56 346.508 54.456C347.276 55.3093 347.66 56.568 347.66 58.232C347.66 60.152 347.148 62.3493 346.124 64.824C347.745 64.7387 349.9 64.4187 352.588 63.864L354.316 63.544ZM355.929 83.32C354.307 83.32 353.155 82.4667 352.473 80.76C351.833 79.0533 351.513 76.3227 351.513 72.568C351.513 67.0213 352.302 61.752 353.881 56.76C354.265 55.5227 354.883 54.6267 355.737 54.072C356.633 53.4747 357.87 53.176 359.449 53.176C360.302 53.176 360.899 53.2827 361.241 53.496C361.582 53.7093 361.753 54.1147 361.753 54.712C361.753 55.3947 361.433 56.9307 360.793 59.32C360.366 61.0267 360.025 62.52 359.769 63.8C359.513 65.08 359.299 66.6587 359.129 68.536C360.537 64.8667 362.115 61.88 363.865 59.576C365.614 57.272 367.321 55.6293 368.985 54.648C370.691 53.6667 372.249 53.176 373.657 53.176C376.43 53.176 377.817 54.5627 377.817 57.336C377.817 59 377.347 62.008 376.409 66.36C375.598 70.072 375.193 72.5253 375.193 73.72C375.193 75.4267 375.811 76.28 377.049 76.28C377.902 76.28 378.905 75.768 380.057 74.744C381.251 73.6773 382.83 71.9707 384.793 69.624C385.305 69.0267 385.881 68.728 386.521 68.728C387.075 68.728 387.502 68.984 387.801 69.496C388.142 70.008 388.312 70.712 388.312 71.608C388.312 73.3147 387.907 74.6373 387.097 75.576C385.262 77.8373 383.278 79.6933 381.145 81.144C379.054 82.5947 376.665 83.32 373.977 83.32C371.801 83.32 370.158 82.7013 369.049 81.464C367.939 80.184 367.385 78.3493 367.385 75.96C367.385 74.7653 367.683 72.632 368.281 69.56C368.835 66.872 369.113 65.016 369.113 63.992C369.113 63.3093 368.878 62.968 368.409 62.968C367.854 62.968 367.065 63.6933 366.041 65.144C365.059 66.552 364.035 68.4293 362.969 70.776C361.945 73.1227 361.113 75.5973 360.473 78.2C360.003 80.2053 359.449 81.5707 358.809 82.296C358.211 82.9787 357.251 83.32 355.929 83.32ZM407.391 68.728C407.945 68.728 408.372 68.984 408.671 69.496C409.012 70.008 409.183 70.712 409.183 71.608C409.183 73.3147 408.777 74.6373 407.967 75.576C406.132 77.8373 404.127 79.6933 401.951 81.144C399.817 82.5947 397.385 83.32 394.655 83.32C390.9 83.32 388.105 81.6133 386.271 78.2C384.479 74.7867 383.583 70.3707 383.583 64.952C383.583 59.7467 384.244 53.816 385.567 47.16C386.932 40.504 388.916 34.7867 391.519 30.008C394.164 25.2293 397.3 22.84 400.927 22.84C402.975 22.84 404.575 23.8 405.727 25.72C406.921 27.5973 407.519 30.3067 407.519 33.848C407.519 38.9253 406.111 44.8133 403.295 51.512C400.479 58.2107 396.66 64.8453 391.839 71.416C392.137 73.1653 392.628 74.424 393.311 75.192C393.993 75.9173 394.889 76.28 395.999 76.28C397.748 76.28 399.284 75.7893 400.607 74.808C401.929 73.784 403.615 72.056 405.663 69.624C406.175 69.0267 406.751 68.728 407.391 68.728ZM399.519 29.176C398.537 29.176 397.428 30.9467 396.191 34.488C394.953 38.0293 393.865 42.424 392.927 47.672C391.988 52.92 391.476 57.9547 391.391 62.776C394.42 57.784 396.831 52.792 398.623 47.8C400.415 42.7653 401.311 38.1787 401.311 34.04C401.311 30.7973 400.713 29.176 399.519 29.176ZM436.65 63.352C437.204 63.352 437.631 63.6293 437.93 64.184C438.228 64.7387 438.378 65.4427 438.378 66.296C438.378 68.344 437.759 69.56 436.522 69.944C433.962 70.84 431.146 71.352 428.074 71.48C427.263 75.064 425.663 77.944 423.274 80.12C420.884 82.2533 418.175 83.32 415.146 83.32C412.586 83.32 410.388 82.7013 408.554 81.464C406.762 80.2267 405.396 78.584 404.458 76.536C403.519 74.488 403.049 72.2693 403.049 69.88C403.049 66.6373 403.668 63.7573 404.906 61.24C406.143 58.68 407.85 56.696 410.026 55.288C412.202 53.8373 414.612 53.112 417.258 53.112C420.5 53.112 423.103 54.2427 425.066 56.504C427.071 58.7227 428.244 61.4747 428.586 64.76C430.591 64.632 432.98 64.2053 435.754 63.48C436.095 63.3947 436.394 63.352 436.65 63.352ZM415.658 76.536C417.023 76.536 418.196 75.9813 419.178 74.872C420.202 73.7627 420.884 72.1627 421.226 70.072C419.903 69.176 418.879 68.0027 418.154 66.552C417.471 65.1013 417.13 63.5653 417.13 61.944C417.13 61.2613 417.194 60.5787 417.322 59.896H417.002C415.295 59.896 413.866 60.728 412.714 62.392C411.604 64.0133 411.05 66.3173 411.05 69.304C411.05 71.6507 411.498 73.4427 412.394 74.68C413.332 75.9173 414.42 76.536 415.658 76.536ZM440.757 83.32C438.111 83.32 435.999 82.36 434.421 80.44C432.842 78.52 432.053 76.0027 432.053 72.888C432.053 69.4747 432.842 66.2533 434.421 63.224C435.999 60.152 438.09 57.6987 440.693 55.864C443.338 53.9867 446.133 53.048 449.077 53.048C450.015 53.048 450.634 53.24 450.933 53.624C451.274 53.9653 451.551 54.6053 451.765 55.544C452.661 55.3733 453.599 55.288 454.581 55.288C456.671 55.288 457.717 56.0347 457.717 57.528C457.717 58.424 457.397 60.5573 456.757 63.928C455.775 68.8347 455.285 72.248 455.285 74.168C455.285 74.808 455.434 75.32 455.733 75.704C456.074 76.088 456.501 76.28 457.013 76.28C457.823 76.28 458.805 75.768 459.957 74.744C461.109 73.6773 462.666 71.9707 464.629 69.624C465.141 69.0267 465.717 68.728 466.357 68.728C466.911 68.728 467.338 68.984 467.637 69.496C467.978 70.008 468.149 70.712 468.149 71.608C468.149 73.3147 467.743 74.6373 466.933 75.576C465.183 77.752 463.327 79.5867 461.365 81.08C459.402 82.5733 457.503 83.32 455.669 83.32C454.261 83.32 452.959 82.8507 451.765 81.912C450.613 80.9307 449.738 79.608 449.141 77.944C446.922 81.528 444.127 83.32 440.757 83.32ZM443.061 76.856C443.999 76.856 444.895 76.3013 445.749 75.192C446.602 74.0827 447.221 72.6107 447.605 70.776L449.973 59C448.181 59.0427 446.517 59.7253 444.981 61.048C443.487 62.328 442.293 64.0347 441.397 66.168C440.501 68.3013 440.053 70.5627 440.053 72.952C440.053 74.2747 440.309 75.256 440.821 75.896C441.375 76.536 442.122 76.856 443.061 76.856ZM499.299 68.728C499.854 68.728 500.28 68.984 500.579 69.496C500.92 70.008 501.091 70.712 501.091 71.608C501.091 73.3147 500.686 74.6373 499.875 75.576C498.126 77.7093 496.206 79.544 494.115 81.08C492.024 82.5733 489.955 83.32 487.907 83.32C484.664 83.32 482.19 81.4213 480.483 77.624C478.691 79.8853 477.112 81.4 475.747 82.168C474.424 82.936 472.867 83.32 471.075 83.32C468.472 83.32 466.318 82.36 464.611 80.44C462.947 78.4773 462.115 75.9387 462.115 72.824C462.115 69.4107 462.84 66.2533 464.291 63.352C465.742 60.408 467.726 58.0187 470.243 56.184C472.803 54.3067 475.662 53.1973 478.819 52.856C479.63 44.5787 481.166 37.5173 483.427 31.672C485.731 25.784 488.739 22.84 492.451 22.84C494.286 22.84 495.8 23.672 496.995 25.336C498.232 27 498.851 29.5173 498.851 32.888C498.851 37.6667 497.678 43.256 495.331 49.656C492.984 56.056 489.848 62.6267 485.923 69.368C486.094 71.8427 486.456 73.6133 487.011 74.68C487.608 75.7467 488.355 76.28 489.251 76.28C490.403 76.28 491.576 75.768 492.771 74.744C493.966 73.72 495.566 72.0133 497.571 69.624C498.083 69.0267 498.659 68.728 499.299 68.728ZM491.747 29.112C490.936 29.112 490.126 30.5627 489.315 33.464C488.504 36.3227 487.8 40.0773 487.203 44.728C486.648 49.3787 486.243 54.2427 485.987 59.32C490.766 48.9093 493.155 40.5467 493.155 34.232C493.155 32.6107 493.006 31.352 492.707 30.456C492.451 29.56 492.131 29.112 491.747 29.112ZM473.315 76.856C474.126 76.856 474.936 76.536 475.747 75.896C476.558 75.2133 477.582 73.976 478.819 72.184C478.392 69.88 478.179 67.2987 478.179 64.44C478.179 63.416 478.222 61.752 478.307 59.448C475.96 60.1733 473.998 61.752 472.419 64.184C470.883 66.5733 470.115 69.24 470.115 72.184C470.115 75.2987 471.182 76.856 473.315 76.856ZM524.429 68.728C524.983 68.728 525.41 68.984 525.708 69.496C526.05 70.008 526.221 70.712 526.221 71.608C526.221 73.3147 525.815 74.6373 525.005 75.576C523.426 77.496 521.186 79.2667 518.285 80.888C515.426 82.5093 512.354 83.32 509.069 83.32C504.589 83.32 501.111 82.104 498.637 79.672C496.162 77.24 494.924 73.912 494.924 69.688C494.924 66.744 495.543 64.0133 496.781 61.496C498.018 58.936 499.725 56.9093 501.901 55.416C504.119 53.9227 506.615 53.176 509.389 53.176C511.863 53.176 513.847 53.9227 515.341 55.416C516.834 56.8667 517.581 58.8507 517.581 61.368C517.581 64.312 516.514 66.8507 514.381 68.984C512.29 71.0747 508.727 72.7387 503.693 73.976C504.759 75.9387 506.786 76.92 509.773 76.92C511.693 76.92 513.869 76.2587 516.301 74.936C518.775 73.5707 520.909 71.8 522.701 69.624C523.213 69.0267 523.789 68.728 524.429 68.728ZM508.301 59.448C506.722 59.448 505.378 60.3653 504.269 62.2C503.202 64.0347 502.669 66.2533 502.669 68.856V68.984C505.186 68.3867 507.17 67.4907 508.621 66.296C510.071 65.1013 510.797 63.7147 510.797 62.136C510.797 61.3253 510.562 60.6853 510.093 60.216C509.666 59.704 509.069 59.448 508.301 59.448ZM546.866 61.944C547.804 61.944 548.594 62.2853 549.234 62.968C549.916 63.608 550.257 64.4187 550.257 65.4C550.257 65.9547 550.13 66.552 549.874 67.192C549.191 68.7707 548.231 70.0933 546.994 71.16C545.756 72.2267 544.391 72.76 542.898 72.76C541.703 72.76 540.679 72.3333 539.826 71.48C539.015 70.6267 538.61 69.4747 538.61 68.024C538.61 67.2133 538.652 66.3387 538.738 65.4C538.823 64.7173 538.866 64.248 538.866 63.992C538.866 63.6507 538.78 63.3947 538.61 63.224C538.482 63.0533 538.311 62.968 538.098 62.968C537.5 62.968 536.69 63.6933 535.666 65.144C534.642 66.552 533.618 68.4293 532.594 70.776C531.57 73.1227 530.738 75.5973 530.098 78.2C529.628 80.248 529.095 81.6133 528.498 82.296C527.9 82.9787 526.919 83.32 525.554 83.32C523.932 83.32 522.78 82.4667 522.098 80.76C521.458 79.0533 521.138 76.3227 521.138 72.568C521.138 67.0213 521.927 61.752 523.506 56.76C523.89 55.5227 524.508 54.6267 525.362 54.072C526.258 53.4747 527.495 53.176 529.074 53.176C529.927 53.176 530.524 53.2827 530.866 53.496C531.207 53.7093 531.378 54.1147 531.378 54.712C531.378 55.3947 531.058 56.9307 530.418 59.32C529.991 61.0267 529.65 62.52 529.394 63.8C529.138 65.08 528.924 66.6587 528.754 68.536C530.162 64.8667 531.74 61.88 533.49 59.576C535.239 57.272 536.946 55.6293 538.61 54.648C540.274 53.6667 541.788 53.176 543.154 53.176C544.391 53.176 545.33 53.5387 545.97 54.264C546.652 54.9467 546.994 55.9707 546.994 57.336C546.994 58.1467 546.759 59.6827 546.29 61.944H546.866Z" fill="black"/>
<g clip-path="url(#clip0_11_151)">
<path d="M187.888 24.5125V53.1625H200.2L180.5 75.3125L160.812 53.1625H173.125V24.5125C159.012 27.85 148.5 40.5 148.5 55.625C148.5 73.2999 162.825 87.625 180.5 87.625C198.175 87.625 212.5 73.2999 212.5 55.625C212.5 40.5 201.988 27.85 187.888 24.5125Z" fill="#27285C"/>
</g>
<defs>
<clipPath id="clip0_11_151">
<rect width="64" height="64" fill="white" transform="translate(148.5 24)"/>
</clipPath>
</defs>
</svg>
