<svg width="112" height="26" viewBox="0 0 112 26" fill="none" xmlns="http://www.w3.org/2000/svg">
<path d="M97.8131 0.669236C98.2417 0.240724 98.823 0 99.4291 0C100.035 0 100.617 0.240724 101.045 0.669236L111.331 10.9551C111.759 11.3837 112 11.965 112 12.5711C112 13.1772 111.759 13.7585 111.331 14.1872L101.045 24.473C100.614 24.8894 100.037 25.1198 99.4374 25.1146C98.838 25.1094 98.2647 24.869 97.8409 24.4452C97.4171 24.0214 97.1768 23.4481 97.1715 22.8488C97.1663 22.2495 97.3967 21.6721 97.8131 21.241L104.001 14.8569L2 14.5C1.39378 14.5 0.928661 14.4287 0.5 14C0.0713389 13.5713 6.10352e-05 13.1062 6.10352e-05 12.5C6.10352e-05 11.8938 0.0713389 11.4287 0.5 11C0.928661 10.5713 1.39378 10.5 2 10.5L104.001 10.2854L97.8131 3.90129C97.3846 3.47264 97.1439 2.89136 97.1439 2.28526C97.1439 1.67916 97.3846 1.09788 97.8131 0.669236Z" fill="#27285C"/>
</svg>
