<svg width="32" height="32" viewBox="0 0 32 32" fill="none" xmlns="http://www.w3.org/2000/svg">
<g clip-path="url(#clip0_5_205)">
<path d="M16.6933 0.25607C16.5001 0.0908122 16.2542 0 16 0C15.7458 0 15.4999 0.0908122 15.3067 0.25607L0 13.3761V28.8001C0 29.6488 0.337142 30.4627 0.937258 31.0628C1.53737 31.6629 2.35131 32.0001 3.2 32.0001H11.7333C12.0162 32.0001 12.2875 31.8877 12.4876 31.6876C12.6876 31.4876 12.8 31.2163 12.8 30.9334V24.5334C12.8 23.6847 13.1371 22.8708 13.7373 22.2707C14.3374 21.6705 15.1513 21.3334 16 21.3334C16.8487 21.3334 17.6626 21.6705 18.2627 22.2707C18.8629 22.8708 19.2 23.6847 19.2 24.5334V30.9334C19.2 31.2163 19.3124 31.4876 19.5124 31.6876C19.7125 31.8877 19.9838 32.0001 20.2667 32.0001H28.8C29.6487 32.0001 30.4626 31.6629 31.0627 31.0628C31.6629 30.4627 32 29.6488 32 28.8001V13.3761L16.6933 0.25607Z" fill="#E7E7E7"/>
</g>
<defs>
<clipPath id="clip0_5_205">
<rect width="32" height="32" fill="white"/>
</clipPath>
</defs>
</svg>
