<svg width="32" height="32" viewBox="0 0 32 32" fill="none" xmlns="http://www.w3.org/2000/svg">
<path d="M17.6448 0.00196853C18.8123 -0.00251159 19.9799 0.00922239 21.147 0.0371668L21.4574 0.0483662C21.8158 0.0611656 22.1694 0.0771647 22.5966 0.0963637C24.2989 0.17636 25.4604 0.445146 26.4796 0.840326C27.5355 1.2467 28.4251 1.79708 29.3146 2.68663C30.128 3.48596 30.7575 4.45285 31.1593 5.52009C31.5545 6.53923 31.8233 7.70237 31.9033 9.40469C31.9225 9.83026 31.9385 10.1854 31.9513 10.5438L31.9609 10.8542C31.9893 12.0209 32.0016 13.1878 31.9977 14.3548L31.9993 15.5484V17.6443C32.0032 18.8118 31.991 19.9793 31.9625 21.1465L31.9529 21.4569C31.9401 21.8153 31.9241 22.1688 31.9049 22.596C31.8249 24.2983 31.5529 25.4599 31.1593 26.479C30.7588 27.5474 30.1291 28.5151 29.3146 29.3141C28.5146 30.1273 27.5472 30.7568 26.4796 31.1588C25.4604 31.554 24.2989 31.8227 22.5966 31.9027C22.1694 31.9219 21.8158 31.9379 21.4574 31.9507L21.147 31.9603C19.9799 31.9888 18.8123 32.001 17.6448 31.9971L16.4513 31.9987H14.357C13.1895 32.0027 12.0219 31.9904 10.8548 31.9619L10.5444 31.9523C10.1646 31.9386 9.78486 31.9226 9.40524 31.9043C7.70293 31.8243 6.54139 31.5524 5.52064 31.1588C4.45299 30.7577 3.48592 30.1281 2.68719 29.3141C1.8729 28.5146 1.24282 27.5471 0.84088 26.479C0.4457 25.4599 0.176914 24.2983 0.0969181 22.596C0.0790997 22.2164 0.0631004 21.8367 0.0489206 21.4569L0.0409213 21.1465C0.0114245 19.9793 -0.00190958 18.8118 0.000923154 17.6443V14.3548C-0.00354216 13.1879 0.00819182 12.0209 0.0361215 10.8542L0.0473208 10.5438C0.0601202 10.1854 0.0761193 9.83026 0.0953183 9.40469C0.175314 7.70077 0.4441 6.54083 0.83928 5.52009C1.24146 4.45233 1.87277 3.4857 2.68879 2.68823C3.48698 1.87348 4.45343 1.24282 5.52064 0.840326C6.54139 0.445146 7.70133 0.17636 9.40524 0.0963637L10.5444 0.0483662L10.8548 0.0403668C12.0214 0.0108848 13.1884 -0.00244924 14.3554 0.00036873L17.6448 0.00196853ZM16.0001 8.00156C14.9402 7.98657 13.8878 8.18239 12.9042 8.57764C11.9206 8.97289 11.0254 9.55968 10.2705 10.3039C9.51571 11.0482 8.91631 11.935 8.50719 12.9129C8.09807 13.8908 7.88738 14.9403 7.88738 16.0003C7.88738 17.0604 8.09807 18.1099 8.50719 19.0878C8.91631 20.0657 9.51571 20.9525 10.2705 21.6968C11.0254 22.441 11.9206 23.0278 12.9042 23.4231C13.8878 23.8183 14.9402 24.0141 16.0001 23.9991C18.1217 23.9991 20.1565 23.1563 21.6567 21.6561C23.1569 20.1559 23.9997 18.1212 23.9997 15.9995C23.9997 13.8779 23.1569 11.8432 21.6567 10.343C20.1565 8.84277 18.1217 8.00156 16.0001 8.00156ZM16.0001 11.2014C16.6377 11.1896 17.2712 11.3051 17.8637 11.5409C18.4562 11.7768 18.9957 12.1283 19.4508 12.575C19.9059 13.0217 20.2674 13.5546 20.5142 14.1426C20.761 14.7306 20.8882 15.3618 20.8883 15.9995C20.8884 16.6372 20.7614 17.2685 20.5148 17.8566C20.2682 18.4447 19.9068 18.9777 19.4519 19.4246C18.997 19.8714 18.4576 20.2231 17.8652 20.4592C17.2728 20.6952 16.6393 20.8108 16.0017 20.7993C14.7287 20.7993 13.5079 20.2936 12.6078 19.3935C11.7076 18.4934 11.2019 17.2725 11.2019 15.9995C11.2019 14.7266 11.7076 13.5057 12.6078 12.6056C13.5079 11.7055 14.7287 11.1998 16.0017 11.1998L16.0001 11.2014ZM24.3997 5.60168C23.8835 5.62234 23.3954 5.84191 23.0375 6.2144C22.6796 6.5869 22.4798 7.08342 22.4798 7.59998C22.4798 8.11654 22.6796 8.61306 23.0375 8.98555C23.3954 9.35805 23.8835 9.57762 24.3997 9.59828C24.9301 9.59828 25.4388 9.38757 25.8138 9.01252C26.1889 8.63747 26.3996 8.12878 26.3996 7.59838C26.3996 7.06797 26.1889 6.55929 25.8138 6.18424C25.4388 5.80918 24.9301 5.59848 24.3997 5.59848V5.60168Z" fill="#E7E7E7"/>
</svg>
