<svg width="24" height="25" viewBox="0 0 24 25" fill="none" xmlns="http://www.w3.org/2000/svg">
<path d="M21.3333 0.5C22.0406 0.5 22.7189 0.780951 23.219 1.28105C23.719 1.78115 24 2.45942 24 3.16667V21.8333C24 22.5406 23.719 23.2189 23.219 23.719C22.7189 24.219 22.0406 24.5 21.3333 24.5H2.66667C1.95942 24.5 1.28115 24.219 0.781048 23.719C0.280951 23.2189 0 22.5406 0 21.8333V3.16667C0 2.45942 0.280951 1.78115 0.781048 1.28105C1.28115 0.780951 1.95942 0.5 2.66667 0.5H21.3333ZM20.6667 21.1667V14.1C20.6667 12.9472 20.2087 11.8416 19.3936 11.0264C18.5784 10.2113 17.4728 9.75333 16.32 9.75333C15.1867 9.75333 13.8667 10.4467 13.2267 11.4867V10.0067H9.50667V21.1667H13.2267V14.5933C13.2267 13.5667 14.0533 12.7267 15.08 12.7267C15.5751 12.7267 16.0499 12.9233 16.3999 13.2734C16.75 13.6235 16.9467 14.0983 16.9467 14.5933V21.1667H20.6667ZM5.17333 7.91333C5.76742 7.91333 6.33717 7.67733 6.75725 7.25725C7.17733 6.83717 7.41333 6.26742 7.41333 5.67333C7.41333 4.43333 6.41333 3.42 5.17333 3.42C4.57571 3.42 4.00257 3.6574 3.57999 4.07999C3.1574 4.50257 2.92 5.07571 2.92 5.67333C2.92 6.91333 3.93333 7.91333 5.17333 7.91333ZM7.02667 21.1667V10.0067H3.33333V21.1667H7.02667Z" fill="#E7E7E7"/>
</svg>
