<svg width="32" height="26" viewBox="0 0 32 26" fill="none" xmlns="http://www.w3.org/2000/svg">
<path d="M17.8128 0.669236C18.2415 0.240724 18.8228 0 19.4289 0C20.035 0 20.6163 0.240724 21.0449 0.669236L31.3308 10.9551C31.7593 11.3837 32 11.965 32 12.5711C32 13.1772 31.7593 13.7585 31.3308 14.1872L21.0449 24.473C20.6138 24.8894 20.0364 25.1198 19.4371 25.1146C18.8378 25.1094 18.2645 24.869 17.8407 24.4452C17.4169 24.0214 17.1765 23.4481 17.1713 22.8488C17.1661 22.2495 17.3965 21.6721 17.8128 21.241L24.0004 14.8569H2.28575C1.67953 14.8569 1.09814 14.6161 0.66948 14.1874C0.240819 13.7587 0 13.1774 0 12.5711C0 11.9649 0.240819 11.3835 0.66948 10.9549C1.09814 10.5262 1.67953 10.2854 2.28575 10.2854H24.0004L17.8128 3.90129C17.3843 3.47264 17.1436 2.89136 17.1436 2.28526C17.1436 1.67916 17.3843 1.09788 17.8128 0.669236Z" fill="#27285C"/>
</svg>
