<svg width="24" height="25" viewBox="0 0 24 25" fill="none" xmlns="http://www.w3.org/2000/svg">
<path d="M12 0.5C5.376 0.5 0 5.876 0 12.5C0 19.124 5.376 24.5 12 24.5C18.624 24.5 24 19.124 24 12.5C24 5.876 18.624 0.5 12 0.5ZM17.568 8.66C17.388 10.556 16.608 15.164 16.212 17.288C16.044 18.188 15.708 18.488 15.396 18.524C14.7 18.584 14.172 18.068 13.5 17.624C12.444 16.928 11.844 16.496 10.824 15.824C9.636 15.044 10.404 14.612 11.088 13.916C11.268 13.736 14.34 10.94 14.4 10.688C14.4083 10.6498 14.4072 10.6102 14.3968 10.5726C14.3863 10.5349 14.3668 10.5004 14.34 10.472C14.268 10.412 14.172 10.436 14.088 10.448C13.98 10.472 12.3 11.588 9.024 13.796C8.544 14.12 8.112 14.288 7.728 14.276C7.296 14.264 6.48 14.036 5.868 13.832C5.112 13.592 4.524 13.46 4.572 13.04C4.596 12.824 4.896 12.608 5.46 12.38C8.964 10.856 11.292 9.848 12.456 9.368C15.792 7.976 16.476 7.736 16.932 7.736C17.028 7.736 17.256 7.76 17.4 7.88C17.52 7.976 17.556 8.108 17.568 8.204C17.556 8.276 17.58 8.492 17.568 8.66Z" fill="#E7E7E7"/>
</svg>
