<svg width="32" height="26" viewBox="0 0 32 26" fill="none" xmlns="http://www.w3.org/2000/svg">
<path d="M16.3912 0C17.2457 0.00480024 19.3834 0.0256012 21.6555 0.116806L22.4619 0.152007C24.7484 0.259213 27.0333 0.444822 28.1678 0.760038C29.6799 1.18566 30.8671 2.42412 31.2688 3.9954C31.9088 6.49152 31.9888 11.359 31.9984 12.5382L32 12.7814V13.0599C31.9888 14.2391 31.9088 19.1082 31.2688 21.6027C30.8623 23.1788 29.6735 24.4188 28.1678 24.838C27.0333 25.1533 24.7484 25.3389 22.4619 25.4461L21.6555 25.4829C19.3834 25.5725 17.2457 25.5949 16.3912 25.5981L16.0152 25.5997H15.6072C13.7991 25.5885 6.23711 25.5069 3.83059 24.838C2.32012 24.4124 1.13126 23.174 0.729637 21.6027C0.0896046 19.1066 0.00960048 14.2391 0 13.0599V12.5382C0.00960048 11.359 0.0896046 6.48992 0.729637 3.9954C1.13606 2.41932 2.32492 1.17926 3.83219 0.761638C6.23711 0.0912043 13.8007 0.00960048 15.6088 0H16.3912ZM12.799 7.20036V18.4009L22.3995 12.8006L12.799 7.20036Z" fill="#E7E7E7"/>
</svg>
